Coordinates
version=1
nRows=37
nColumns=38
inDegrees=no

Units are S.I. units (second, meters, Newtons, ...)
If the header above contains a line with 'inDegrees', this indicates whether rotational values are in degrees (yes) or radians (no).

endheader
time	pelvis_tilt	pelvis_list	pelvis_rotation	pelvis_tx	pelvis_ty	pelvis_tz	hip_flexion_r	hip_adduction_r	hip_rotation_r	knee_angle_r	ankle_angle_r	subtalar_angle_r	mtp_angle_r	hip_flexion_l	hip_adduction_l	hip_rotation_l	knee_angle_l	ankle_angle_l	subtalar_angle_l	mtp_angle_l	lumbar_extension	lumbar_bending	lumbar_rotation	arm_flex_r	arm_add_r	arm_rot_r	elbow_flex_r	pro_sup_r	wrist_flex_r	wrist_dev_r	arm_flex_l	arm_add_l	arm_rot_l	elbow_flex_l	pro_sup_l	wrist_flex_l	wrist_dev_l
2.04	0.0328327	1.29567	-1.70471	0.812994	0.157072	0.988918	-0.248469	-0.036153	-0.183909	0.422378	0.243376	0	0	0.0867582	-0.0537643	-0.263641	0.178975	0.21378	0	0	-0.442465	0.020113	0.0578509	0.482657	-0.483458	0.262245	1.05744	0.806445	0	0	0.301204	-0.256568	-0.0984972	1.18675	0.95747	0	0
2.05	0.0217013	1.29796	-1.69493	0.813536	0.147219	0.987633	-0.25647	-0.0357087	-0.186696	0.425637	0.251352	0	0	0.0885153	-0.0505111	-0.248144	0.131285	0.20603	0	0	-0.439646	0.0209135	0.0589062	0.482763	-0.483722	0.260436	1.05615	0.813253	0	0	0.301315	-0.254761	-0.100136	1.18745	0.959202	0	0
2.06	0.00658945	1.30024	-1.68226	0.814078	0.137244	0.98627	-0.264433	-0.0342944	-0.1875	0.428917	0.257811	0	0	0.0889176	-0.0488479	-0.234035	0.0843723	0.197569	0	0	-0.436752	0.0225801	0.0609995	0.483069	-0.484156	0.259023	1.05527	0.818849	0	0	0.301214	-0.252689	-0.101629	1.18761	0.960801	0	0
2.07	-0.0140266	1.30273	-1.66535	0.814549	0.127141	0.984817	-0.272055	-0.0314438	-0.185949	0.432307	0.263274	0	0	0.0900335	-0.0499931	-0.225935	0.0430981	0.192685	0	0	-0.433512	0.0254277	0.0641677	0.483893	-0.484641	0.25706	1.05484	0.824366	0	0	0.300449	-0.250563	-0.102862	1.18725	0.962285	0	0
2.08	-0.0373924	1.30428	-1.6465	0.81507	0.116828	0.983374	-0.280793	-0.0283819	-0.183292	0.435588	0.268357	0	0	0.087196	-0.0512259	-0.215242	0	0.183154	0	0	-0.430812	0.0288413	0.0679197	0.484604	-0.48522	0.256595	1.05506	0.823843	0	0	0.299984	-0.247696	-0.105163	1.18574	0.967081	0	0
2.09	-0.0623331	1.30417	-1.62568	0.815588	0.107083	0.981896	-0.290521	-0.0234548	-0.177566	0.439229	0.271671	0	0	0.100233	-0.0564103	-0.219851	0	0.186799	0	0	-0.430459	0.0321967	0.0720224	0.48587	-0.485267	0.254411	1.05457	0.829709	0	0	0.301447	-0.244567	-0.107267	1.18318	0.970886	0	0
2.1	-0.086304	1.30334	-1.60525	0.816165	0.0968249	0.980513	-0.301758	-0.0200482	-0.174041	0.441874	0.275102	0	0	0.110076	-0.0619291	-0.228167	0	0.192277	0	0	-0.430115	0.0353	0.0755543	0.486789	-0.485505	0.25382	1.05401	0.826452	0	0	0.303036	-0.242042	-0.107629	1.18036	0.968861	0	0
2.11	-0.108256	1.30243	-1.58772	0.816736	0.0864294	0.979137	-0.31295	-0.0175068	-0.16908	0.444879	0.278537	0	0	0.117903	-0.0668277	-0.238573	0	0.198386	0	0	-0.42934	0.0374159	0.0800286	0.487092	-0.485325	0.251725	1.05287	0.827605	0	0	0.305231	-0.239365	-0.107558	1.17598	0.97131	0	0
2.12	-0.12888	1.30165	-1.57213	0.817318	0.0757807	0.977738	-0.324119	-0.015631	-0.162622	0.447696	0.280924	0	0	0.123996	-0.0711222	-0.250508	0	0.204791	0	0	-0.427985	0.0389175	0.0852751	0.486677	-0.484889	0.248019	1.05127	0.834358	0	0	0.307641	-0.236758	-0.106334	1.1708	0.974536	0	0
2.13	-0.147458	1.30016	-1.55756	0.818051	0.0648456	0.976345	-0.336713	-0.0143456	-0.157431	0.449714	0.281913	0	0	0.127542	-0.0742445	-0.2615	0	0.211341	0	0	-0.426991	0.0402212	0.08909	0.486525	-0.485227	0.248221	1.05039	0.823211	0	0	0.309511	-0.234924	-0.10431	1.1671	0.974438	0	0
2.14	-0.164478	1.30173	-1.54611	0.818663	0.0538794	0.974718	-0.344975	-0.0144069	-0.150106	0.454478	0.284685	0	0	0.132336	-0.076646	-0.274902	0	0.21645	0	0	-0.422517	0.0403239	0.0952716	0.483358	-0.482924	0.235908	1.04837	0.843635	0	0	0.312381	-0.23242	-0.101195	1.16129	0.975381	0	0
2.15	-0.187084	1.32409	-1.53281	0.819148	0.0420768	0.971253	-0.322808	-0.0170324	-0.143336	0.477969	0.301423	0	0	0.158617	-0.0798916	-0.29448	0	0.222086	0	0	-0.39445	0.0399008	0.108054	0.465968	-0.474819	0.19198	1.05556	0.847436	0	0	0.312676	-0.225791	-0.0995801	1.154	0.973694	0	0
2.16	-0.198858	1.29847	-1.51966	0.82051	0.0307728	0.971881	-0.370699	-0.0138394	-0.141586	0.459228	0.284595	0	0	0.129035	-0.0801218	-0.291885	0	0.226084	0	0	-0.420518	0.0425453	0.102064	0.482996	-0.483768	0.23212	1.04529	0.844804	0	0	0.315439	-0.228394	-0.099457	1.15606	0.97671	0	0
2.17	-0.216855	1.29371	-1.50571	0.821559	0.0186943	0.970628	-0.387392	-0.0133846	-0.136711	0.460138	0.281061	0	0	0.120731	-0.081897	-0.296724	0	0.231684	0	0	-0.422938	0.0443021	0.104893	0.484604	-0.487044	0.239578	1.04527	0.824194	0	0	0.316389	-0.226725	-0.100168	1.15537	0.980623	0	0
2.18	-0.233409	1.29274	-1.49432	0.8225	0.00649541	0.969023	-0.398132	-0.0146559	-0.131493	0.465726	0.279785	0	0	0.114336	-0.0828474	-0.300019	0	0.237026	0	0	-0.420998	0.0448649	0.109285	0.482844	-0.487773	0.237115	1.04499	0.825707	0	0	0.31722	-0.225321	-0.0990246	1.15439	0.980464	0	0
2.19	-0.247928	1.29275	-1.48618	0.823385	-0.00593998	0.967262	-0.406408	-0.0174147	-0.124927	0.474348	0.278793	0	0	0.106631	-0.0827932	-0.301389	0	0.242698	0	0	-0.417954	0.0442566	0.11437	0.480871	-0.488565	0.23494	1.045	0.823953	0	0	0.317486	-0.22454	-0.0976062	1.15458	0.98145	0	0
2.2	-0.263894	1.29547	-1.48038	0.824127	-0.0190097	0.965224	-0.410164	-0.0224533	-0.115503	0.486301	0.278322	0	0	0.0908793	-0.0795474	-0.301886	0	0.247176	0	0	-0.411089	0.04293	0.121641	0.478186	-0.488906	0.23296	1.0449	0.822857	0	0	0.31584	-0.22427	-0.0965872	1.15565	0.980709	0	0
2.21	-0.272618	1.29582	-1.47977	0.824798	-0.0315307	0.963189	-0.414356	-0.0277221	-0.105923	0.50219	0.27633	0	0	0.0903969	-0.08135	-0.305008	0.0108701	0.258324	0	0	-0.407727	0.0392586	0.1272	0.476232	-0.488723	0.232381	1.04435	0.822115	0	0	0.314986	-0.224652	-0.0962015	1.1577	0.980694	0	0
2.22	-0.282562	1.2969	-1.48008	0.825314	-0.0443352	0.960913	-0.41521	-0.0337376	-0.094084	0.523081	0.274336	0	0	0.0903614	-0.0843332	-0.314323	0.0495261	0.277626	0	0	-0.402874	0.0352246	0.134098	0.473981	-0.488392	0.231778	1.04401	0.822744	0	0	0.313131	-0.225282	-0.0966703	1.16019	0.980486	0	0
2.23	-0.290444	1.29771	-1.48444	0.825754	-0.057484	0.958507	-0.413985	-0.0417291	-0.0818852	0.548816	0.271424	0	0	0.0844506	-0.0850033	-0.320688	0.0776399	0.297783	0	0	-0.397562	0.0302829	0.142296	0.470975	-0.488365	0.231858	1.0446	0.821879	0	0	0.310512	-0.226123	-0.0973143	1.16257	0.981215	0	0
2.24	-0.294017	1.29819	-1.49457	0.826242	-0.0706883	0.956085	-0.41012	-0.0518409	-0.0684004	0.57997	0.265909	0	0	0.0743489	-0.082086	-0.326092	0.0905965	0.313242	0	0	-0.392576	0.023954	0.151285	0.468122	-0.487931	0.23095	1.04499	0.827952	0	0	0.308249	-0.227395	-0.0970632	1.16432	0.980387	0	0
2.25	-0.291003	1.29785	-1.5077	0.827296	-0.0835017	0.953921	-0.404782	-0.0614002	-0.0540009	0.614515	0.254657	0	0	0.0653647	-0.0763862	-0.327025	0.0945727	0.305674	0	0	-0.389904	0.0170369	0.156194	0.46715	-0.487045	0.231492	1.04531	0.822262	0	0	0.308059	-0.228851	-0.0970239	1.16519	0.980079	0	0
2.26	-0.281868	1.29923	-1.52246	0.828796	-0.095482	0.952231	-0.393629	-0.0683844	-0.0350502	0.654162	0.23605	0	0	0.069266	-0.0740348	-0.334442	0.114658	0.272661	0	0	-0.388072	0.0088687	0.156723	0.467471	-0.484296	0.230358	1.04453	0.818694	0	0	0.310808	-0.230731	-0.0961542	1.16509	0.978104	0	0
2.27	-0.247225	1.30613	-1.56133	0.830158	-0.106806	0.950918	-0.365213	-0.0855654	-0.0289207	0.713119	0.212526	0	0	0.0886552	-0.070352	-0.352081	0.156844	0.234222	0	0	-0.38219	-0.0075004	0.155221	0.46713	-0.478704	0.227275	1.04205	0.815942	0	0	0.315531	-0.234916	-0.0914529	1.16327	0.976561	0	0
2.28	-0.192895	1.31296	-1.62004	0.831176	-0.118023	0.950476	-0.33194	-0.107815	-0.0243406	0.776635	0.180988	0	0	0.109806	-0.0641561	-0.372004	0.209508	0.215904	0	0	-0.376185	-0.0289729	0.154428	0.465934	-0.472836	0.223534	1.03873	0.817768	0	0	0.322278	-0.241158	-0.0816489	1.15842	0.978343	0	0
2.29	-0.139083	1.31574	-1.67938	0.831798	-0.129464	0.950832	-0.302213	-0.129427	-0.0190059	0.83596	0.142325	0	0	0.122377	-0.0573586	-0.387247	0.257649	0.215141	0	0	-0.372912	-0.0495207	0.156284	0.464486	-0.469201	0.222146	1.03491	0.823056	0	0	0.329642	-0.247386	-0.0701671	1.15114	0.981642	0	0
2.3	-0.0996799	1.31586	-1.72555	0.83232	-0.140974	0.951524	-0.275839	-0.142113	-0.00191204	0.890227	0.101466	0	0	0.126983	-0.0523058	-0.398497	0.295351	0.215457	0	0	-0.37185	-0.0654994	0.160318	0.463596	-0.468051	0.22382	1.03116	0.827869	0	0	0.335407	-0.251621	-0.0620359	1.14452	0.982683	0	0
2.31	-0.0739111	1.31595	-1.75831	0.833048	-0.152541	0.952146	-0.250168	-0.150032	0.0156115	0.940897	0.0614169	0	0	0.127751	-0.0492611	-0.409545	0.324078	0.211343	0	0	-0.370688	-0.0766357	0.165056	0.462601	-0.468469	0.227365	1.02846	0.828979	0	0	0.338184	-0.253997	-0.057105	1.14125	0.981514	0	0
2.32	-0.0600953	1.31813	-1.77834	0.834225	-0.164025	0.952556	-0.223613	-0.153161	0.0322092	0.988033	0.0230844	0	0	0.128158	-0.0478481	-0.418657	0.346241	0.204607	0	0	-0.368136	-0.0826067	0.169653	0.460971	-0.469265	0.227189	1.02761	0.83864	0	0	0.337986	-0.254421	-0.0543593	1.14318	0.977346	0	0
2.33	-0.054235	1.32082	-1.78693	0.836088	-0.175434	0.952961	-0.199383	-0.153256	0.0429418	1.02973	-0.00990113	0	0	0.126263	-0.0452315	-0.421297	0.359771	0.194387	0	0	-0.366232	-0.0840105	0.17104	0.459088	-0.470698	0.225251	1.02979	0.83569	0	0	0.335855	-0.252707	-0.0553292	1.14896	0.978915	0	0
2.34	-0.0569204	1.32573	-1.7863	0.838239	-0.186778	0.953256	-0.174723	-0.150022	0.0519376	1.06683	-0.0357135	0	0	0.124052	-0.043213	-0.422068	0.367251	0.180407	0	0	-0.362354	-0.0816697	0.171906	0.456306	-0.472361	0.221643	1.03337	0.832357	0	0	0.331913	-0.249861	-0.0586834	1.15611	0.980692	0	0
2.35	-0.0684463	1.33053	-1.77622	0.840514	-0.198099	0.953707	-0.152533	-0.144079	0.0596442	1.09892	-0.0469646	0	0	0.116804	-0.0392314	-0.414586	0.362086	0.152792	0	0	-0.358802	-0.0765588	0.171479	0.45411	-0.474426	0.218571	1.03747	0.827461	0	0	0.326091	-0.246902	-0.0647249	1.16415	0.982052	0	0
2.36	-0.142724	1.33253	-1.70261	0.844034	-0.209079	0.955166	-0.140611	-0.113821	0.108191	1.1168	-0.0332741	0	0	0.106073	-0.0521463	-0.411568	0.360103	0.112406	0	0	-0.362267	-0.0537253	0.171504	0.45512	-0.480711	0.219473	1.04188	0.824767	0	0	0.319858	-0.240958	-0.0717888	1.17072	0.982562	0	0
2.37	-0.186454	1.33672	-1.65984	0.845812	-0.220536	0.955821	-0.122268	-0.0972	0.115371	1.14151	-0.0151159	0	0	0.0986149	-0.0582425	-0.408853	0.354917	0.0635553	0	0	-0.358643	-0.0412602	0.170997	0.453182	-0.486409	0.225175	1.04922	0.824618	0	0	0.311636	-0.239865	-0.0770093	1.17921	0.981489	0	0
2.38	-0.223069	1.33955	-1.62452	0.846091	-0.231844	0.956594	-0.110268	-0.068159	0.118289	1.1608	-0.00339155	0	0	0.0923047	-0.0631969	-0.405047	0.354943	0.0338827	0	0	-0.355305	-0.0332697	0.171279	0.45072	-0.490427	0.230231	1.05736	0.828328	0	0	0.305306	-0.241657	-0.0798807	1.18571	0.9808	0	0
2.39	-0.259972	1.34087	-1.58618	0.847712	-0.243144	0.957816	-0.0968528	-0.0535345	0.120684	1.17169	0.0162877	0	0	0.0867112	-0.0682821	-0.399239	0.364378	0.0402659	0	0	-0.354116	-0.0229824	0.168442	0.44751	-0.493874	0.231751	1.06561	0.833945	0	0	0.300505	-0.242991	-0.0808673	1.19049	0.979741	0	0
2.4	-0.283547	1.34342	-1.55962	0.849239	-0.254245	0.959156	-0.0823126	-0.0425181	0.120345	1.17747	0.0331555	0	0	0.0836154	-0.0701103	-0.390601	0.377938	0.0581895	0	0	-0.351701	-0.0164981	0.164064	0.441632	-0.492619	0.222946	1.07328	0.840147	0	0	0.297114	-0.245295	-0.0805725	1.19325	0.978036	0	0
